<svg width="56" height="56" viewBox="0 0 56 56" fill="none" xmlns="http://www.w3.org/2000/svg">
<path fill-rule="evenodd" clip-rule="evenodd" d="M28.0079 49.3745C26.3834 49.3746 24.7645 49.1841 23.1844 48.807C22.7693 48.7076 22.395 48.4825 22.1125 48.1625C21.83 47.8425 21.653 47.4432 21.6058 47.0189L21.2446 43.7517C21.1753 43.1423 20.8844 42.5796 20.4272 42.1709C19.9699 41.7621 19.3783 41.5358 18.765 41.535H18.7565C18.4168 41.5347 18.0808 41.6054 17.77 41.7424L14.7571 43.0644C14.4955 43.1794 14.2129 43.2388 13.9272 43.2388C13.6414 43.2388 13.3588 43.1794 13.0972 43.0644C12.838 42.9521 12.605 42.7868 12.4132 42.5792C10.2057 40.2014 8.55866 37.3594 7.59299 34.2619C7.46567 33.8509 7.4693 33.4106 7.60334 33.0017C7.73738 32.5929 7.99522 32.2359 8.34115 31.9801L11.0024 30.0146C11.3182 29.7821 11.5748 29.4786 11.7516 29.1286C11.9283 28.7787 12.0203 28.392 12.0199 27.9999C12.0192 27.6085 11.9267 27.2226 11.7501 26.8733C11.5734 26.524 11.3173 26.221 11.0024 25.9884L8.34221 24.0261C7.99586 23.7702 7.73775 23.4128 7.60369 23.0035C7.46962 22.5943 7.46626 22.1534 7.59406 21.7422C8.56183 18.6476 10.2091 15.8084 12.4154 13.4324C12.7085 13.1175 13.0925 12.9018 13.5139 12.8152C13.9352 12.7286 14.3731 12.7755 14.7667 12.9493L17.7593 14.2703C18.0703 14.4068 18.4062 14.4774 18.7458 14.4776C19.3615 14.4613 19.9532 14.2351 20.4227 13.8364C20.8823 13.4251 21.1742 12.8589 21.2425 12.246L21.6069 8.97339C21.654 8.5448 21.8338 8.14159 22.1212 7.82022C22.4087 7.49886 22.7894 7.27539 23.2101 7.18103C24.7898 6.8302 26.4016 6.64393 28.0196 6.62524C29.6263 6.64394 31.2268 6.82985 32.795 7.17996C33.2162 7.27485 33.5972 7.49905 33.8846 7.8212C34.1721 8.14335 34.3516 8.54734 34.3982 8.97659L34.7615 12.2471C34.8274 12.8593 35.117 13.4257 35.5748 13.8376C36.0326 14.2494 36.6264 14.4778 37.2422 14.4787C37.5834 14.478 37.9207 14.4051 38.2319 14.2649L41.2309 12.9439C41.6232 12.7717 42.0592 12.7255 42.4788 12.8116C42.8984 12.8978 43.281 13.112 43.5737 13.4249C45.7827 15.8004 47.4315 18.6406 48.3992 21.7368C48.5271 22.1482 48.5238 22.5893 48.3897 22.9987C48.2557 23.4082 47.9975 23.7658 47.6511 24.0219L44.9941 25.9842C44.6766 26.2148 44.4182 26.5172 44.24 26.8668C44.0619 27.2164 43.969 27.6033 43.969 27.9956C43.969 28.388 44.0619 28.7748 44.24 29.1244C44.4182 29.474 44.6766 29.7765 44.9941 30.0071L47.6596 31.9736C48.005 32.2294 48.2625 32.5861 48.3965 32.9945C48.5305 33.4028 48.5345 33.8427 48.4078 34.2534C47.4404 37.3492 45.7935 40.1897 43.5876 42.5674C43.393 42.7776 43.1563 42.9444 42.8929 43.0569C42.6305 43.1708 42.3473 43.2287 42.0613 43.2268C41.7753 43.225 41.4928 43.1635 41.2319 43.0462L38.2319 41.7306C37.8727 41.573 37.4822 41.4999 37.0904 41.5168C36.5011 41.548 35.9423 41.7886 35.5146 42.1951C35.0869 42.6017 34.8183 43.1476 34.7573 43.7346L34.396 47.0168C34.349 47.4405 34.1725 47.8394 33.8906 48.1592C33.6087 48.4789 33.2351 48.704 32.8206 48.8038C31.2441 49.1813 29.6289 49.3728 28.0079 49.3745ZM27.9995 36.8639C32.8949 36.8639 36.8634 32.8954 36.8634 28C36.8634 23.1046 32.8949 19.1361 27.9995 19.1361C23.1041 19.1361 19.1356 23.1046 19.1356 28C19.1356 32.8954 23.1041 36.8639 27.9995 36.8639Z" fill="white"/>
<path d="M23.1844 48.807L23.068 49.2933L23.0684 49.2934L23.1844 48.807ZM28.0079 49.3745L28.0079 49.8745H28.0084L28.0079 49.3745ZM21.6058 47.0189L21.1089 47.0739L21.1089 47.0742L21.6058 47.0189ZM21.2446 43.7517L21.7416 43.6967L21.7414 43.6952L21.2446 43.7517ZM20.4272 42.1709L20.7604 41.7981L20.7604 41.7981L20.4272 42.1709ZM18.765 41.535L18.7657 41.035H18.765V41.535ZM18.7565 41.535L18.7561 42.035H18.7565V41.535ZM17.77 41.7424L17.9709 42.2002L17.9716 42.1999L17.77 41.7424ZM14.7571 43.0644L14.5561 42.6066L14.5559 42.6067L14.7571 43.0644ZM13.0972 43.0644L13.2984 42.6067L13.2961 42.6057L13.0972 43.0644ZM12.4132 42.5792L12.7805 42.2399L12.7797 42.239L12.4132 42.5792ZM7.59299 34.2619L7.11538 34.4099L7.11565 34.4107L7.59299 34.2619ZM7.60334 33.0017L7.12823 32.8459H7.12823L7.60334 33.0017ZM8.34115 31.9801L8.0441 31.5779L8.04386 31.5781L8.34115 31.9801ZM11.0024 30.0146L10.706 29.6119L10.7054 29.6124L11.0024 30.0146ZM11.7516 29.1286L11.3053 28.9032H11.3053L11.7516 29.1286ZM12.0199 27.9999L12.5199 27.9995L12.5199 27.999L12.0199 27.9999ZM11.0024 25.9884L11.2994 25.5862L11.2992 25.5861L11.0024 25.9884ZM8.34221 24.0261L8.04505 24.4283L8.0454 24.4285L8.34221 24.0261ZM7.60369 23.0035L8.07884 22.8479H8.07884L7.60369 23.0035ZM7.59406 21.7422L7.11685 21.5929L7.11659 21.5938L7.59406 21.7422ZM12.4154 13.4324L12.0494 13.0916L12.049 13.0921L12.4154 13.4324ZM13.5139 12.8152L13.6145 13.305L13.5139 12.8152ZM14.7667 12.9493L14.5647 13.4067L14.5648 13.4067L14.7667 12.9493ZM17.7593 14.2703L17.5574 14.7277L17.5583 14.7281L17.7593 14.2703ZM18.7458 14.4776L18.7454 14.9778L18.759 14.9775L18.7458 14.4776ZM20.4227 13.8364L20.7465 14.2176L20.7561 14.209L20.4227 13.8364ZM21.2425 12.246L21.7394 12.3014L21.7394 12.3013L21.2425 12.246ZM21.6069 8.97339L22.1039 9.02873L22.1039 9.02794L21.6069 8.97339ZM22.1212 7.82022L21.7485 7.48689V7.48689L22.1212 7.82022ZM23.2101 7.18103L23.1017 6.69293L23.1007 6.69315L23.2101 7.18103ZM28.0196 6.62524L28.0254 6.12514L28.0138 6.12528L28.0196 6.62524ZM32.795 7.17996L32.9049 6.69218L32.9039 6.69197L32.795 7.17996ZM33.8846 7.8212L34.2577 7.48831V7.4883L33.8846 7.8212ZM34.3982 8.97659L33.9011 9.03044L33.9012 9.0318L34.3982 8.97659ZM34.7615 12.2471L35.2587 12.1936L35.2585 12.1919L34.7615 12.2471ZM35.5748 13.8376L35.2404 14.2093L35.2404 14.2093L35.5748 13.8376ZM37.2422 14.4787L37.2414 14.9787L37.2432 14.9787L37.2422 14.4787ZM38.2319 14.2649L38.0303 13.8073L38.0265 13.8091L38.2319 14.2649ZM41.2309 12.9439L41.0299 12.4861L41.0294 12.4863L41.2309 12.9439ZM42.4788 12.8116L42.3782 13.3014L42.4788 12.8116ZM43.5737 13.4249L43.9398 13.0844L43.9388 13.0833L43.5737 13.4249ZM48.3992 21.7368L48.8767 21.5884L48.8765 21.5877L48.3992 21.7368ZM48.3897 22.9987L47.9146 22.8431L47.9145 22.8431L48.3897 22.9987ZM47.6511 24.0219L47.9481 24.4241L47.9483 24.4239L47.6511 24.0219ZM44.9941 25.9842L45.2879 26.3887L45.2911 26.3864L44.9941 25.9842ZM44.24 26.8668L44.6855 27.0938L44.24 26.8668ZM44.24 29.1244L44.6855 28.8974L44.24 29.1244ZM44.9941 30.0071L45.291 29.6047L45.2879 29.6025L44.9941 30.0071ZM47.6596 31.9736L47.9572 31.5718L47.9565 31.5713L47.6596 31.9736ZM48.4078 34.2534L48.885 34.4025L48.8856 34.4007L48.4078 34.2534ZM43.5876 42.5674L43.221 42.2274L43.2206 42.2278L43.5876 42.5674ZM42.8929 43.0569L42.6965 42.5971L42.6938 42.5983L42.8929 43.0569ZM41.2319 43.0462L41.4369 42.5902L41.4328 42.5883L41.2319 43.0462ZM38.2319 41.7306L38.031 42.1884L38.0311 42.1885L38.2319 41.7306ZM37.0904 41.5168L37.0688 41.0173L37.064 41.0175L37.0904 41.5168ZM35.5146 42.1951L35.8591 42.5576H35.8591L35.5146 42.1951ZM34.7573 43.7346L35.2543 43.7893L35.2546 43.7863L34.7573 43.7346ZM34.396 47.0168L34.8929 47.072L34.893 47.0715L34.396 47.0168ZM32.8206 48.8038L32.937 49.2901L32.9377 49.2899L32.8206 48.8038ZM23.0684 49.2934C24.6865 49.6795 26.3443 49.8746 28.0079 49.8745L28.0079 48.8745C26.4225 48.8746 24.8426 48.6887 23.3005 48.3207L23.0684 49.2934ZM21.7376 48.4935C22.0882 48.8906 22.5528 49.1699 23.068 49.2933L23.3009 48.3208C22.9858 48.2453 22.7017 48.0745 22.4873 47.8316L21.7376 48.4935ZM21.1089 47.0742C21.1675 47.6007 21.387 48.0963 21.7376 48.4935L22.4873 47.8316C22.2729 47.5888 22.1386 47.2857 22.1028 46.9637L21.1089 47.0742ZM20.7476 43.8066L21.1089 47.0739L22.1028 46.964L21.7416 43.6967L20.7476 43.8066ZM20.0939 42.5436C20.4597 42.8706 20.6924 43.3207 20.7478 43.8081L21.7414 43.6952C21.6583 42.9639 21.3091 42.2887 20.7604 41.7981L20.0939 42.5436ZM18.7644 42.035C19.255 42.0357 19.7282 42.2167 20.0939 42.5436L20.7604 41.7981C20.2117 41.3076 19.5017 41.036 18.7657 41.035L18.7644 42.035ZM18.7565 42.035H18.765V41.035H18.7565V42.035ZM17.9716 42.1999C18.2188 42.091 18.486 42.0348 18.7561 42.035L18.7569 41.035C18.3476 41.0347 17.9428 41.1198 17.5683 41.2848L17.9716 42.1999ZM14.958 43.5223L17.9709 42.2002L17.5691 41.2845L14.5561 42.6066L14.958 43.5223ZM13.9272 43.7388C14.2821 43.7388 14.6332 43.665 14.9582 43.5222L14.5559 42.6067C14.3577 42.6938 14.1436 42.7388 13.9272 42.7388V43.7388ZM12.8961 43.5222C13.2211 43.665 13.5722 43.7388 13.9272 43.7388V42.7388C13.7107 42.7388 13.4966 42.6938 13.2984 42.6067L12.8961 43.5222ZM12.046 42.9185C12.2849 43.1772 12.5753 43.3831 12.8984 43.5232L13.2961 42.6057C13.1007 42.521 12.925 42.3964 12.7805 42.2399L12.046 42.9185ZM7.11565 34.4107C8.10354 37.5795 9.78848 40.4869 12.0468 42.9194L12.7797 42.239C10.6229 39.9159 9.01378 37.1393 8.07033 34.1131L7.11565 34.4107ZM7.12823 32.8459C6.96188 33.3533 6.95738 33.8998 7.11538 34.4099L8.07059 34.114C7.97397 33.802 7.97672 33.4678 8.07846 33.1575L7.12823 32.8459ZM8.04386 31.5781C7.61456 31.8955 7.29458 32.3386 7.12823 32.8459L8.07846 33.1575C8.18019 32.8472 8.37588 32.5763 8.63844 32.3821L8.04386 31.5781ZM10.7054 29.6124L8.0441 31.5779L8.6382 32.3823L11.2995 30.4167L10.7054 29.6124ZM11.3053 28.9032C11.1639 29.1832 10.9586 29.4259 10.706 29.6119L11.2988 30.4172C11.6778 30.1383 11.9858 29.7741 12.1979 29.3541L11.3053 28.9032ZM11.5199 28.0004C11.5202 28.314 11.4467 28.6233 11.3053 28.9032L12.1979 29.3541C12.41 28.934 12.5203 28.47 12.5199 27.9995L11.5199 28.0004ZM11.3039 27.099C11.4453 27.3786 11.5193 27.6875 11.5199 28.0009L12.5199 27.999C12.519 27.5294 12.4082 27.0666 12.1962 26.6476L11.3039 27.099ZM10.7054 26.3907C10.9575 26.5768 11.1624 26.8194 11.3039 27.099L12.1962 26.6476C11.9843 26.2287 11.6771 25.8651 11.2994 25.5862L10.7054 26.3907ZM8.0454 24.4285L10.7056 26.3908L11.2992 25.5861L8.63902 23.6238L8.0454 24.4285ZM7.12853 23.1592C7.2949 23.6671 7.61523 24.1106 8.04505 24.4283L8.63937 23.624C8.37649 23.4298 8.18059 23.1585 8.07884 22.8479L7.12853 23.1592ZM7.11659 21.5938C6.95799 22.1042 6.96215 22.6513 7.12853 23.1592L8.07884 22.8479C7.97709 22.5373 7.97454 22.2027 8.07154 21.8905L7.11659 21.5938ZM12.049 13.0921C9.79198 15.5228 8.10686 18.4272 7.11685 21.5929L8.07127 21.8914C9.0168 18.8679 10.6262 16.094 12.7818 13.7726L12.049 13.0921ZM13.4132 12.3254C12.8901 12.4329 12.4134 12.7008 12.0494 13.0916L12.7813 13.7731C13.0037 13.5343 13.2949 13.3707 13.6145 13.305L13.4132 12.3254ZM14.9686 12.4919C14.4801 12.2762 13.9364 12.218 13.4132 12.3254L13.6145 13.305C13.9341 13.2393 14.2662 13.2749 14.5647 13.4067L14.9686 12.4919ZM17.9612 13.8129L14.9686 12.4919L14.5648 13.4067L17.5574 14.7277L17.9612 13.8129ZM18.7461 13.9776C18.4756 13.9774 18.208 13.9212 17.9603 13.8125L17.5583 14.7281C17.9325 14.8924 18.3367 14.9774 18.7454 14.9776L18.7461 13.9776ZM20.099 13.4552C19.7165 13.7802 19.2343 13.9645 18.7326 13.9778L18.759 14.9775C19.4887 14.9582 20.19 14.69 20.7464 14.2175L20.099 13.4552ZM20.7455 12.1906C20.6909 12.6813 20.4572 13.1346 20.0893 13.4637L20.7561 14.209C21.3074 13.7157 21.6575 13.0365 21.7394 12.3014L20.7455 12.1906ZM21.11 8.91805L20.7455 12.1906L21.7394 12.3013L22.1039 9.02873L21.11 8.91805ZM21.7485 7.48689C21.3916 7.88597 21.1683 8.38665 21.1099 8.91884L22.1039 9.02794C22.1396 8.70294 22.2759 8.39722 22.4939 8.15356L21.7485 7.48689ZM23.1007 6.69315C22.5783 6.81032 22.1055 7.0878 21.7485 7.48689L22.4939 8.15356C22.7118 7.90991 23.0005 7.74046 23.3195 7.66891L23.1007 6.69315ZM28.0138 6.12528C26.3612 6.14436 24.7151 6.33461 23.1017 6.69293L23.3185 7.66914C24.8645 7.32579 26.4419 7.14349 28.0254 7.12521L28.0138 6.12528ZM32.9039 6.69197C31.3018 6.33431 29.6669 6.14438 28.0254 6.12528L28.0138 7.12521C29.5858 7.1435 31.1517 7.3254 32.686 7.66794L32.9039 6.69197ZM34.2577 7.4883C33.9008 7.08834 33.4278 6.81 32.9049 6.69218L32.6851 7.66773C33.0046 7.73971 33.2935 7.90976 33.5116 8.1541L34.2577 7.4883ZM34.8952 8.92273C34.8375 8.38981 34.6146 7.88827 34.2577 7.48831L33.5116 8.1541C33.7296 8.39844 33.8658 8.70486 33.9011 9.03044L34.8952 8.92273ZM35.2585 12.1919L34.8951 8.92137L33.9012 9.0318L34.2646 12.3023L35.2585 12.1919ZM35.9092 13.4659C35.543 13.1364 35.3113 12.6834 35.2587 12.1936L34.2644 12.3005C34.3434 13.0353 34.691 13.715 35.2404 14.2093L35.9092 13.4659ZM37.2429 13.9787C36.7504 13.9779 36.2754 13.7953 35.9092 13.4659L35.2404 14.2093C35.7898 14.7036 36.5024 14.9776 37.2414 14.9787L37.2429 13.9787ZM38.0265 13.8091C37.7795 13.9203 37.5119 13.9781 37.2411 13.9787L37.2432 14.9787C37.655 14.9778 38.0619 14.8899 38.4372 14.7208L38.0265 13.8091ZM41.0294 12.4863L38.0303 13.8074L38.4334 14.7225L41.4325 13.4015L41.0294 12.4863ZM42.5793 12.3218C42.0583 12.2149 41.5169 12.2723 41.0299 12.4861L41.4319 13.4017C41.7294 13.2711 42.06 13.2361 42.3782 13.3014L42.5793 12.3218ZM43.9388 13.0833C43.5754 12.6948 43.1004 12.4288 42.5793 12.3218L42.3782 13.3014C42.6965 13.3668 42.9866 13.5292 43.2086 13.7665L43.9388 13.0833ZM48.8765 21.5877C47.8865 18.4202 46.1997 15.5146 43.9398 13.0844L43.2075 13.7653C45.3657 16.0862 46.9766 18.861 47.922 21.886L48.8765 21.5877ZM48.8649 23.1543C49.0313 22.6462 49.0354 22.0989 48.8767 21.5884L47.9218 21.8852C48.0188 22.1975 48.0163 22.5323 47.9146 22.8431L48.8649 23.1543ZM47.9483 24.4239C48.3782 24.1061 48.6986 23.6624 48.8649 23.1543L47.9145 22.8431C47.8128 23.154 47.6168 23.4254 47.3539 23.6198L47.9483 24.4239ZM45.2911 26.3864L47.9481 24.4241L47.354 23.6197L44.6971 25.582L45.2911 26.3864ZM44.6855 27.0938C44.8278 26.8146 45.0343 26.5729 45.2879 26.3887L44.7003 25.5796C44.3189 25.8566 44.0086 26.2198 43.7945 26.6398L44.6855 27.0938ZM44.469 27.9956C44.469 27.6822 44.5432 27.3731 44.6855 27.0938L43.7945 26.6398C43.5805 27.0597 43.469 27.5243 43.469 27.9956H44.469ZM44.6855 28.8974C44.5432 28.6181 44.469 28.3091 44.469 27.9956H43.469C43.469 28.4669 43.5805 28.9316 43.7945 29.3515L44.6855 28.8974ZM45.2879 29.6025C45.0343 29.4183 44.8278 29.1767 44.6855 28.8974L43.7945 29.3515C44.0086 29.7714 44.3189 30.1347 44.7003 30.4116L45.2879 29.6025ZM47.9565 31.5713L45.2909 29.6047L44.6973 30.4094L47.3628 32.376L47.9565 31.5713ZM48.8716 32.8385C48.7053 32.3318 48.3858 31.8892 47.9572 31.5718L47.3621 32.3755C47.6242 32.5696 47.8197 32.8404 47.9214 33.1504L48.8716 32.8385ZM48.8856 34.4007C49.0428 33.8911 49.0378 33.3452 48.8716 32.8385L47.9214 33.1504C48.0231 33.4604 48.0261 33.7943 47.93 34.106L48.8856 34.4007ZM43.9541 42.9075C46.2107 40.4752 47.8954 37.5694 48.885 34.4025L47.9306 34.1042C46.9854 37.1289 45.3763 39.9042 43.221 42.2274L43.9541 42.9075ZM43.0893 43.5168C43.4173 43.3766 43.7122 43.1689 43.9545 42.9071L43.2206 42.2278C43.0738 42.3864 42.8952 42.5122 42.6965 42.5971L43.0893 43.5168ZM42.058 43.7268C42.4136 43.7291 42.7658 43.6572 43.092 43.5156L42.6938 42.5983C42.4953 42.6845 42.2809 42.7282 42.0645 42.7269L42.058 43.7268ZM41.027 43.5023C41.3513 43.6481 41.7025 43.7246 42.058 43.7268L42.0645 42.7269C41.8481 42.7255 41.6343 42.6789 41.4369 42.5902L41.027 43.5023ZM38.0311 42.1885L41.0311 43.5042L41.4328 42.5883L38.4327 41.2727L38.0311 42.1885ZM37.112 42.0163C37.4274 42.0027 37.7418 42.0616 38.031 42.1884L38.4328 41.2727C38.0036 41.0844 37.537 40.997 37.0688 41.0173L37.112 42.0163ZM35.8591 42.5576C36.2005 42.233 36.6465 42.041 37.1168 42.0161L37.064 41.0175C36.3557 41.055 35.6842 41.3441 35.1701 41.8327L35.8591 42.5576ZM35.2546 43.7863C35.3033 43.3178 35.5177 42.8821 35.8591 42.5576L35.1701 41.8327C34.6561 42.3214 34.3333 42.9774 34.2599 43.6828L35.2546 43.7863ZM34.893 47.0715L35.2543 43.7893L34.2603 43.6799L33.899 46.9621L34.893 47.0715ZM34.2656 48.4898C34.6155 48.0929 34.8346 47.5978 34.8929 47.072L33.8991 46.9616C33.8634 47.2832 33.7294 47.5858 33.5155 47.8285L34.2656 48.4898ZM32.9377 49.2899C33.452 49.1661 33.9158 48.8867 34.2656 48.4898L33.5155 47.8285C33.3016 48.0712 33.0181 48.242 32.7036 48.3177L32.9377 49.2899ZM28.0084 49.8745C29.6685 49.8728 31.3226 49.6767 32.937 49.2901L32.7042 48.3176C31.1657 48.686 29.5893 48.8729 28.0074 48.8745L28.0084 49.8745ZM36.3634 28C36.3634 32.6193 32.6188 36.3639 27.9995 36.3639V37.3639C33.1711 37.3639 37.3634 33.1716 37.3634 28H36.3634ZM27.9995 19.6361C32.6188 19.6361 36.3634 23.3808 36.3634 28H37.3634C37.3634 22.8285 33.1711 18.6361 27.9995 18.6361V19.6361ZM19.6356 28C19.6356 23.3808 23.3803 19.6361 27.9995 19.6361V18.6361C22.828 18.6361 18.6356 22.8285 18.6356 28H19.6356ZM27.9995 36.3639C23.3803 36.3639 19.6356 32.6193 19.6356 28H18.6356C18.6356 33.1716 22.828 37.3639 27.9995 37.3639V36.3639Z" fill="url(#paint0_linear_5114_8634)"/>
<defs>
<linearGradient id="paint0_linear_5114_8634" x1="13.8203" y1="-7.41182" x2="64.8306" y2="52.1979" gradientUnits="userSpaceOnUse">
<stop stop-color="#5600D7"/>
<stop offset="1" stop-color="#00EFEA" stop-opacity="0.66"/>
</linearGradient>
</defs>
</svg>
