<svg width="56" height="56" viewBox="0 0 56 56" fill="none" xmlns="http://www.w3.org/2000/svg">
<path d="M50.8414 33.192L41.4592 47.7563C41.0936 48.3257 40.4631 48.6687 39.7875 48.6667L16.9133 48.5988C16.5643 48.5978 16.2218 48.5045 15.9203 48.3283C15.6189 48.1521 15.3691 47.8991 15.1963 47.595C15.0235 47.2909 14.9337 46.9464 14.9361 46.5963C14.9384 46.2462 15.0328 45.9029 15.2097 45.601L23.7431 31.0342C23.9189 30.7341 24.1701 30.4855 24.4716 30.3132C24.7731 30.1409 25.1144 30.0509 25.4613 30.0523L49.1817 30.1228C50.7498 30.1274 51.692 31.8707 50.8414 33.192Z" fill="#EDF0F7" stroke="url(#paint0_linear_8622_32318)"/>
<path d="M34.2166 3.92127C34.2225 3.94459 34.2268 3.96839 34.2326 3.99176C35.8732 10.2332 42.8014 13.4674 48.0472 12.1409C48.0548 12.1389 48.0623 12.137 48.0699 12.1351L48.3178 13.1049C48.3071 13.1076 48.2961 13.1095 48.2854 13.1122C42.0197 14.7346 38.7689 21.6796 40.0972 26.9357C40.0993 26.9436 40.1022 26.9513 40.1042 26.9592L39.1344 27.207C39.1314 27.1951 39.1283 27.1831 39.1252 27.1711C37.5006 20.9071 30.557 17.6573 25.3017 18.987C25.2949 18.9887 25.2879 18.9915 25.2811 18.9932L25.2809 18.9923L25.2799 18.9925L25.0323 18.0237C25.0438 18.0207 25.0557 18.0176 25.0673 18.0147C31.3234 16.3938 34.5714 9.46801 33.2574 4.21481C33.2535 4.1997 33.2497 4.18454 33.2458 4.1694L34.2166 3.92127ZM34.5288 7.24837C34.3193 11.2686 32.1135 15.4634 28.3572 17.711C32.3778 17.9196 36.5735 20.1259 38.8218 23.8821C39.0306 19.8613 41.2371 15.6653 44.9938 13.4173C40.9735 13.2089 36.7774 11.0039 34.5288 7.24837Z" fill="url(#paint1_linear_8622_32318)"/>
<path d="M38.8138 48.6639C39.1504 48.665 39.4819 48.5801 39.7769 48.4172C40.0718 48.2543 40.3207 48.0188 40.4999 47.7329C40.6792 47.4469 40.7829 47.1199 40.8014 46.7826C40.8199 46.4454 40.7526 46.109 40.6057 45.8051L31.1353 26.2102C30.9734 25.8752 30.7209 25.5926 30.4068 25.3944C30.0926 25.1962 29.7292 25.0905 29.358 25.0893L7.53105 25.0245C7.20055 25.0236 6.87503 25.1056 6.58408 25.263C6.29313 25.4204 6.04597 25.6482 5.86506 25.9258C5.68416 26.2033 5.57524 26.5218 5.5482 26.8523C5.52117 27.1828 5.57688 27.5148 5.71027 27.8181L14.312 47.4104C14.4668 47.7625 14.72 48.0619 15.0411 48.2724C15.3621 48.4829 15.7372 48.5955 16.1208 48.5964L38.8138 48.6639Z" fill="white" stroke="url(#paint2_linear_8622_32318)"/>
<path fill-rule="evenodd" clip-rule="evenodd" d="M16.4511 8.99428C16.452 8.99771 16.4527 9.00122 16.4537 9.00466C17.1847 11.5833 20.0876 12.8591 22.2495 12.2587C22.253 12.2577 22.2566 12.2567 22.2601 12.2557L22.3448 12.5573C22.3413 12.5583 22.3377 12.559 22.3341 12.56C19.7557 13.2911 18.4798 16.194 19.0801 18.3558C19.0811 18.3593 19.0824 18.3628 19.0834 18.3663L18.7818 18.451C18.7808 18.4475 18.7798 18.444 18.7788 18.4404C18.0476 15.8619 15.1448 14.5858 12.983 15.1864C12.9795 15.1874 12.9762 15.1886 12.9728 15.1896L12.8881 14.888C12.8915 14.8871 12.8949 14.8861 12.8984 14.8851C15.4771 14.1541 16.753 11.2512 16.1524 9.08927C16.1514 9.08584 16.1505 9.08241 16.1495 9.07898L16.4511 8.99428Z" fill="#DCE1EF"/>
<path d="M16.6347 8.37668L16.7116 8.62492C17.5764 11.14 20.4922 12.3834 22.674 11.7816C22.6796 11.78 22.6853 11.7784 22.6909 11.7769L22.6921 11.7775L22.9625 12.7403C22.9567 12.7419 22.9502 12.7427 22.9444 12.7444C20.2748 13.5055 18.9351 16.5334 19.556 18.781C19.5575 18.7862 19.5599 18.7915 19.5614 18.7967L18.5977 19.0674C18.5962 19.0621 18.5947 19.0567 18.5932 19.0514C17.8329 16.3812 14.8061 15.0413 12.5582 15.6615C12.5526 15.6631 12.5471 15.6656 12.5415 15.6672L12.2709 14.7035C12.2762 14.702 12.2815 14.7005 12.2868 14.699C14.9638 13.9367 16.3038 10.8967 15.672 8.64708L16.6347 8.37668ZM16.7539 10.7006C16.5335 12.1542 15.7895 13.5921 14.5966 14.5838C16.0493 14.8045 17.4865 15.5487 18.4778 16.7407C18.6985 15.2882 19.4429 13.8507 20.6346 12.8596C19.1815 12.6384 17.7449 11.8934 16.7539 10.7006Z" fill="#DCE1EF"/>
<defs>
<linearGradient id="paint0_linear_8622_32318" x1="40.6615" y1="71.2208" x2="50.8974" y2="-14.308" gradientUnits="userSpaceOnUse">
<stop stop-color="#5600D7"/>
<stop offset="1" stop-color="#00EFEA" stop-opacity="0.6"/>
</linearGradient>
<linearGradient id="paint1_linear_8622_32318" x1="23.8297" y1="-1.48258" x2="59.6182" y2="24.7926" gradientUnits="userSpaceOnUse">
<stop stop-color="#5600D7"/>
<stop offset="1" stop-color="#00EFEA" stop-opacity="0.66"/>
</linearGradient>
<linearGradient id="paint2_linear_8622_32318" x1="14.9067" y1="62.5217" x2="36.3853" y2="-2.38113" gradientUnits="userSpaceOnUse">
<stop stop-color="#5600D7"/>
<stop offset="1" stop-color="#00EFEA" stop-opacity="0.6"/>
</linearGradient>
</defs>
</svg>
