<svg width="56" height="56" viewBox="0 0 56 56" fill="none" xmlns="http://www.w3.org/2000/svg">
<path d="M26.3828 22.9134C27.4813 22.3537 29.2373 22.3997 30.305 23.0161L52.2153 35.666C53.283 36.2825 53.258 37.2359 52.1595 37.7957L29.6172 49.2815C28.5187 49.8412 26.7627 49.7952 25.695 49.1788L3.78473 36.5289C2.71702 35.9125 2.74199 34.959 3.8405 34.3993L26.3828 22.9134Z" fill="#EEF0F7"/>
<path d="M26.3828 14.8158C27.4813 14.2561 29.2373 14.302 30.305 14.9185L52.2153 27.5684C53.283 28.1848 53.258 29.1383 52.1595 29.698L29.6172 41.1839C28.5187 41.7436 26.7627 41.6976 25.695 41.0811L3.78473 28.4313C2.71702 27.8148 2.74199 26.8614 3.8405 26.3016L26.3828 14.8158Z" fill="#DCE1EF"/>
<path d="M28.3428 6.82886C28.9923 6.84592 29.611 6.99763 30.0547 7.25366L51.9648 19.9041C52.4161 20.1646 52.5032 20.4155 52.5 20.5437C52.4966 20.6719 52.3971 20.9183 51.9326 21.155L29.3906 32.6414C28.934 32.874 28.3071 32.9933 27.6572 32.9763C27.0076 32.9592 26.389 32.8067 25.9453 32.5505L4.03516 19.9011C3.58358 19.6404 3.49664 19.3887 3.5 19.2605C3.50353 19.1323 3.60343 18.8866 4.06738 18.6501L26.6094 7.16382C27.066 6.93115 27.6929 6.81184 28.3428 6.82886Z" fill="white" stroke="url(#paint0_linear_8599_886)"/>
<defs>
<linearGradient id="paint0_linear_8599_886" x1="10.7077" y1="-2.58833" x2="35.0927" y2="52.1274" gradientUnits="userSpaceOnUse">
<stop stop-color="#5600D7"/>
<stop offset="1" stop-color="#00EFEA" stop-opacity="0.66"/>
</linearGradient>
</defs>
</svg>
