<svg width="25" height="24" viewBox="0 0 25 24" fill="none" xmlns="http://www.w3.org/2000/svg">
<path d="M12.6121 4.14286C12.3327 4.14286 12.057 4.15708 11.7857 4.18476C11.1905 4.24549 10.6582 3.81756 10.5968 3.22895C10.5354 2.64034 10.9681 2.11395 11.5633 2.05322C11.9084 2.01801 12.2583 2 12.6121 2C17.4247 2 21.4498 5.32376 22.4728 9.77566C22.6054 10.3527 22.2399 10.9268 21.6564 11.0579C21.0729 11.189 20.4924 10.8275 20.3598 10.2505C19.5561 6.75288 16.391 4.14286 12.6121 4.14286ZM8.45314 4.00092C8.78864 4.49089 8.65897 5.15705 8.16351 5.48883C6.05134 6.90324 4.66687 9.29191 4.66687 12C4.66687 13.6318 5.1687 15.1444 6.02793 16.3993C6.36343 16.8892 6.23376 17.5554 5.7383 17.8872C5.24284 18.219 4.56921 18.0907 4.23371 17.6007C3.13929 16.0024 2.5 14.0734 2.5 12C2.5 8.55108 4.2665 5.51053 6.94856 3.7145C7.44401 3.38272 8.11764 3.51095 8.45314 4.00092ZM21.6126 13.2928C22.1904 13.4466 22.5326 14.0346 22.3771 14.6059C21.2176 18.8644 17.2865 22 12.6121 22C10.9197 22 9.32147 21.588 7.9174 20.859C7.38762 20.584 7.18362 19.9363 7.46177 19.4123C7.73992 18.8884 8.39488 18.6867 8.92467 18.9618C10.0255 19.5333 11.2789 19.8571 12.6121 19.8571C16.2821 19.8571 19.3735 17.3954 20.2847 14.0488C20.4403 13.4774 21.0348 13.1389 21.6126 13.2928ZM12.6121 6.28572C9.42079 6.28572 6.83374 8.84409 6.83374 12C6.83374 15.1559 9.42079 17.7143 12.6121 17.7143C15.8033 17.7143 18.3904 15.1559 18.3904 12C18.3904 8.84409 15.8033 6.28572 12.6121 6.28572ZM9.00061 12C9.00061 10.0276 10.6175 8.42857 12.6121 8.42857C14.6066 8.42857 16.2235 10.0276 16.2235 12C16.2235 13.9724 14.6066 15.5714 12.6121 15.5714C10.6175 15.5714 9.00061 13.9724 9.00061 12Z" fill="#212121"/>
</svg>
