<svg width="25" height="24" viewBox="0 0 25 24" fill="none" xmlns="http://www.w3.org/2000/svg">
<path d="M12.5 1.5C12.8101 1.50007 13.106 1.62412 13.3252 1.84082C13.3841 1.89975 13.4352 1.96537 13.4795 2.03418C12.7603 3.07583 12.338 4.33865 12.3379 5.7002C12.3379 5.77784 12.341 5.85564 12.3438 5.93262L11.0371 6.35742C10.2233 6.56869 9.45749 6.95434 8.79883 7.49512C7.75611 8.35138 7.04198 9.54347 6.77832 10.8662C6.51471 12.1891 6.72045 13.564 7.35742 14.7539C7.99443 15.9437 9.02367 16.877 10.2695 17.3926C11.5154 17.9081 12.9041 17.9759 14.1943 17.584C15.4868 17.1919 16.6017 16.3634 17.3506 15.2412C17.57 14.9124 17.7539 14.5638 17.9014 14.2021C17.9446 14.1391 17.9811 14.071 18.0068 13.998L18.6045 12.1572C18.6692 12.1591 18.7346 12.1621 18.7998 12.1621C20.1614 12.162 21.4242 11.7397 22.4658 11.0205C22.5348 11.0648 22.6001 11.1164 22.6592 11.1748C22.8782 11.394 22.9999 11.6899 23 12C23 12.3103 22.8761 12.6069 22.6592 12.8262C22.4399 13.0455 22.1433 13.167 21.833 13.167H20.5469C20.2948 14.9028 19.4878 16.5101 18.249 17.749C17.01 18.988 15.402 19.7959 13.666 20.0479V21.333C13.666 21.6433 13.5422 21.9399 13.3252 22.1592C13.1059 22.3784 12.8102 22.4999 12.5 22.5C12.1897 22.5 11.8932 22.3762 11.6738 22.1592C11.4546 21.9399 11.333 21.6433 11.333 21.333V20.0479C9.59709 19.7958 7.98992 18.988 6.75098 17.749C5.51203 16.5101 4.70418 14.9029 4.45215 13.167H3.16699C2.85673 13.167 2.56014 13.0431 2.34082 12.8262C2.12149 12.6068 2 12.3103 2 12C2.00007 11.6898 2.12398 11.3941 2.34082 11.1748C2.56015 10.9555 2.85669 10.834 3.16699 10.834H4.45215C4.70415 9.09799 5.51198 7.48997 6.75098 6.25098C7.98987 5.0122 9.59724 4.20515 11.333 3.95312V2.66699C11.333 2.35666 11.4568 2.06015 11.6738 1.84082C11.8931 1.62157 12.1897 1.5 12.5 1.5Z" fill="#212121"/>
<path d="M12.0449 9.71094C12.4975 9.62002 12.9667 9.66743 13.3936 9.84473C13.8203 10.022 14.1838 10.3207 14.4404 10.7031C14.697 11.088 14.833 11.5381 14.833 12C14.833 12.6183 14.588 13.2141 14.1494 13.6504C13.7108 14.0864 13.1181 14.3329 12.5 14.333C12.038 14.333 11.5871 14.1957 11.2021 13.9414C10.8196 13.6848 10.5187 13.3204 10.3438 12.8936C10.1666 12.4667 10.1223 11.9974 10.2109 11.5449C10.2996 11.0926 10.5232 10.6771 10.8496 10.3506C11.1762 10.024 11.5923 9.80193 12.0449 9.71094Z" fill="#212121"/>
<path d="M19.1514 1.89941C19.3264 1.89949 19.4975 1.95244 19.6416 2.05176C19.7885 2.15521 19.8986 2.30338 19.9561 2.47363L20.2822 3.47559C20.3592 3.70007 20.4863 3.90472 20.6533 4.07324C20.8203 4.24171 21.0234 4.37032 21.2471 4.44922L22.2441 4.77148C22.4107 4.83035 22.5548 4.94035 22.6562 5.08496C22.7575 5.22939 22.8118 5.40173 22.8105 5.57812C22.8092 5.75478 22.752 5.92723 22.6484 6.07031C22.5449 6.21321 22.3996 6.3206 22.2324 6.37695L21.251 6.69629C21.0191 6.774 20.8084 6.90484 20.6357 7.07812C20.5892 7.12425 20.5451 7.17288 20.5049 7.22461C20.396 7.36503 20.3123 7.5236 20.2568 7.69238L19.9336 8.68555C19.8757 8.85179 19.7666 8.99579 19.623 9.09766C19.4796 9.19939 19.3077 9.25415 19.1318 9.25391C18.9555 9.25457 18.7834 9.19983 18.6396 9.09766C18.4955 8.99124 18.3854 8.84358 18.3252 8.6748L18.0068 7.69434C17.9294 7.46296 17.7993 7.25182 17.627 7.0791C17.4555 6.90726 17.246 6.77777 17.0156 6.70117L16.0166 6.37695C15.8518 6.31819 15.7093 6.20934 15.6084 6.06641C15.5074 5.92354 15.4531 5.75312 15.4531 5.57812C15.4531 5.40301 15.5072 5.2318 15.6084 5.08887C15.7174 4.93695 15.8727 4.82448 16.0508 4.76758L17.0332 4.44922C17.2644 4.37282 17.4751 4.24332 17.6475 4.07129C17.8198 3.89928 17.9495 3.68903 18.0264 3.45801L18.3516 2.46094C18.4097 2.29607 18.5173 2.15256 18.6602 2.05176C18.8044 1.9523 18.9761 1.89941 19.1514 1.89941Z" fill="#212121"/>
</svg>
