<svg width="25" height="24" viewBox="0 0 25 24" fill="none" xmlns="http://www.w3.org/2000/svg">
<path d="M14.0067 10.4921C13.708 10.1935 13.3283 9.98866 12.9144 9.90759C12.5006 9.82653 12.0718 9.86706 11.6814 10.0292C11.291 10.1892 10.9582 10.4644 10.7235 10.8143C10.491 11.1663 10.3651 11.578 10.3651 12.0004C10.3651 12.5657 10.5912 13.1076 10.9902 13.5087C11.3891 13.9097 11.9331 14.1337 12.4984 14.1337C12.9208 14.1337 13.3326 14.01 13.6846 13.7753C14.0344 13.5407 14.3075 13.2079 14.4696 12.8175C14.6318 12.4271 14.6744 11.9983 14.5912 11.5844C14.508 11.1705 14.3054 10.7908 14.0067 10.4921ZM21.0318 10.9337C21.3155 10.9337 21.5864 11.0468 21.787 11.2452C21.9875 11.4457 22.0984 11.7167 22.0984 12.0004C22.0984 12.2841 21.9854 12.5551 21.787 12.7556C21.5864 12.9561 21.3155 13.0671 21.0318 13.0671H19.8563C19.6259 14.6543 18.8878 16.1241 17.755 17.2569C16.6222 18.3897 15.1523 19.1279 13.5651 19.3583V20.5337C13.5651 20.8175 13.452 21.0884 13.2536 21.2889C13.0531 21.4895 12.7822 21.6004 12.4984 21.6004C12.2147 21.6004 11.9438 21.4873 11.7432 21.2889C11.5427 21.0884 11.4318 20.8175 11.4318 20.5337V19.3583C9.84457 19.1279 8.3747 18.3897 7.24191 17.2569C6.1091 16.1241 5.37097 14.6543 5.14057 13.0671H3.9651C3.68137 13.0671 3.41044 12.954 3.2099 12.7556C3.00937 12.5551 2.89844 12.2841 2.89844 12.0004C2.89844 11.7167 3.0115 11.4457 3.2099 11.2452C3.41044 11.0447 3.68137 10.9337 3.9651 10.9337H5.14057C5.37097 9.34652 6.1091 7.87666 7.24191 6.74386C8.3747 5.61106 9.84457 4.87292 11.4318 4.64252V3.46706C11.4318 3.18332 11.5448 2.91239 11.7432 2.71186C11.9438 2.51132 12.2147 2.40039 12.4984 2.40039C12.7822 2.40039 13.0531 2.51346 13.2536 2.71186C13.4542 2.91239 13.5651 3.18332 13.5651 3.46706V4.64252C15.1523 4.87292 16.6222 5.61106 17.755 6.74386C18.8878 7.87666 19.6259 9.34652 19.8563 10.9337H21.0318ZM16.2702 15.7721C16.7651 15.2772 17.1576 14.6884 17.4264 14.042C17.6931 13.3956 17.8296 12.7023 17.8296 12.0004C17.8296 10.7673 17.4008 9.57052 16.6179 8.61692C15.835 7.66333 14.7448 7.01053 13.5352 6.76946C12.3256 6.52839 11.0691 6.71612 9.98111 7.29852C8.89311 7.88092 8.03977 8.82172 7.56831 9.96092C7.09684 11.1001 7.03497 12.3695 7.39337 13.5492C7.75177 14.7311 8.50911 15.7508 9.53524 16.4356C10.5614 17.1204 11.7923 17.4297 13.0211 17.3081C14.2499 17.1865 15.3976 16.6447 16.2702 15.7721Z" fill="#212121"/>
</svg>
