<svg width="20" height="20" viewBox="0 0 20 20" fill="none" xmlns="http://www.w3.org/2000/svg">
<mask id="mask0_9938_84152" style="mask-type:alpha" maskUnits="userSpaceOnUse" x="1" y="2" width="17" height="18">
<path d="M1.34595 2.24823C3.61931 2.23403 8.23203 2.17248 8.44311 2.24823C9.34234 2.57095 8.94447 5.17361 7.05101 5.79303C3.83276 6.24044 9.07228 9.13229 10.4789 11.0717C11.0572 11.869 13.9917 12.4782 14.8797 11.8317L17.6076 11.0717V19.7247H1.34595V2.24823Z" fill="black"/>
</mask>
<g mask="url(#mask0_9938_84152)">
<path d="M7.77547 3.56567C8.41397 3.56567 9.02836 3.66894 9.60285 3.85967C11.908 4.62502 13.5706 6.79874 13.5706 9.36079C13.5706 10.7714 13.0666 12.0643 12.2288 13.0693L16.5773 17.4175C16.783 17.6233 16.783 17.9568 16.5773 18.1626C16.3944 18.3455 16.1105 18.3658 15.9052 18.2235L15.8322 18.1626L11.4839 13.8141C10.479 14.6519 9.18609 15.1559 7.77547 15.1559C4.57491 15.1559 1.98035 12.5613 1.98035 9.36079C1.98035 6.16024 4.57491 3.56567 7.77547 3.56567ZM7.77547 4.61933C5.15683 4.61933 3.034 6.74216 3.034 9.36079C3.034 11.9794 5.15683 14.1023 7.77547 14.1023C10.3941 14.1023 12.5169 11.9794 12.5169 9.36079C12.5169 7.23373 11.1163 5.43379 9.187 4.83299C8.74113 4.69414 8.26704 4.61933 7.77547 4.61933Z" fill="#008486"/>
</g>
<path d="M18.3349 6.08425L17.1243 6.47802C16.7562 6.60047 16.4217 6.80714 16.1475 7.08162C15.8732 7.3561 15.6667 7.69081 15.5443 8.05916L15.1508 9.27077L15.1448 9.295C15.1119 9.38839 15.0508 9.46925 14.97 9.52645C14.8893 9.58365 14.7928 9.61437 14.6938 9.61437C14.5949 9.61437 14.4984 9.58365 14.4176 9.52645C14.3368 9.46925 14.2758 9.38839 14.2428 9.295L13.8494 8.0834C13.727 7.71505 13.5205 7.38033 13.2462 7.10585C12.972 6.83138 12.6375 6.6247 12.2694 6.50225L11.0588 6.10848C10.9654 6.07554 10.8846 6.01444 10.8275 5.9336C10.7703 5.85277 10.7396 5.75618 10.7396 5.65716C10.7396 5.55813 10.7703 5.46155 10.8275 5.38071C10.8331 5.37274 10.839 5.36497 10.8451 5.35739C10.9007 5.28811 10.9746 5.23553 11.0588 5.20584L12.2694 4.81206C12.3337 4.7909 12.3969 4.76717 12.459 4.74096C12.7536 4.61656 13.0222 4.43634 13.2497 4.20958C13.2929 4.16646 13.3345 4.12185 13.3743 4.07585C13.5881 3.82895 13.7518 3.54197 13.8554 3.23092L14.2489 2.01932C14.2818 1.92593 14.3429 1.84507 14.4236 1.78787C14.5044 1.73067 14.6009 1.69995 14.6999 1.69995C14.7988 1.69995 14.8953 1.73067 14.9761 1.78787C15.0569 1.84507 15.1179 1.92593 15.1508 2.01932L15.5443 3.23092C15.6699 3.59479 15.8778 3.92467 16.1519 4.19476C16.426 4.46484 16.7588 4.66783 17.1243 4.78783L18.3349 5.1816C18.4282 5.21455 18.509 5.27565 18.5662 5.35648C18.6234 5.43732 18.6541 5.5339 18.6541 5.63293C18.6541 5.73195 18.6234 5.82854 18.5662 5.90937C18.509 5.99021 18.4282 6.05131 18.3349 6.08425ZM9.36797 11.6302L9.64902 10.7648C9.73641 10.5017 9.88393 10.2626 10.0798 10.0665C10.2757 9.87047 10.5146 9.72284 10.7775 9.63538L11.6423 9.35412C11.709 9.33059 11.7667 9.28694 11.8075 9.2292C11.8483 9.17147 11.8703 9.10248 11.8703 9.03174C11.8703 8.96101 11.8483 8.89202 11.8075 8.83428C11.7667 8.77654 11.709 8.7329 11.6423 8.70937L10.7775 8.42811C10.5165 8.34239 10.2788 8.1974 10.083 8.00448C9.88722 7.81156 9.73869 7.57593 9.64902 7.31602L9.36797 6.45059C9.34446 6.38389 9.30085 6.32613 9.24315 6.28527C9.18546 6.24441 9.11652 6.22247 9.04584 6.22247C8.97516 6.22247 8.90623 6.24441 8.84853 6.28527C8.79084 6.32613 8.74723 6.38389 8.72371 6.45059L8.44267 7.31602C8.35484 7.5796 8.20667 7.81898 8.00997 8.01507C7.81329 8.21116 7.57352 8.35853 7.30981 8.44541L6.44504 8.72668C6.37839 8.75021 6.32067 8.79385 6.27985 8.85159C6.23902 8.90933 6.2171 8.97832 6.2171 9.04905C6.2171 9.11978 6.23902 9.18877 6.27985 9.24651C6.32067 9.30425 6.37839 9.34789 6.44504 9.37143L7.30981 9.65269C7.57272 9.74015 7.81162 9.88778 8.00753 10.0838C8.20343 10.2799 8.35094 10.519 8.43834 10.7821L8.71939 11.6475C8.7429 11.7142 8.78651 11.772 8.84421 11.8128C8.9019 11.8537 8.97084 11.8756 9.04152 11.8756C9.11219 11.8756 9.18113 11.8537 9.23883 11.8128C9.29652 11.772 9.34013 11.7142 9.36364 11.6475L9.36797 11.6302Z" fill="#008486"/>
</svg>
