<svg width="20" height="20" viewBox="0 0 20 20" fill="none" xmlns="http://www.w3.org/2000/svg">
<path d="M13.7891 10.001C13.7889 7.97588 12.1301 6.32622 10.0742 6.32617C8.01826 6.32617 6.35954 7.97585 6.35938 10.001C6.35938 12.0262 8.01816 13.6768 10.0742 13.6768C12.1302 13.6767 13.7891 12.0262 13.7891 10.001ZM14.7891 10.001C14.7891 12.5874 12.6736 14.6767 10.0742 14.6768C7.4748 14.6768 5.35938 12.5874 5.35938 10.001C5.35954 7.41468 7.4749 5.32617 10.0742 5.32617C12.6735 5.32622 14.7889 7.41471 14.7891 10.001Z" fill="#0A0B33"/>
<path d="M17.876 11.6035C18.1421 11.6771 18.2982 11.9526 18.2246 12.2188C17.2427 15.7696 13.9645 18.3748 10.0752 18.375C8.68367 18.375 7.36888 18.041 6.20996 17.4492C5.96404 17.3236 5.86564 17.0223 5.99121 16.7764C6.11677 16.5305 6.41818 16.4332 6.66406 16.5586C7.68525 17.0801 8.84499 17.375 10.0752 17.375C13.5089 17.3748 16.3971 15.0753 17.2607 11.9521C17.3344 11.6861 17.6099 11.53 17.876 11.6035ZM1.625 10C1.625 7.07429 3.13922 4.50132 5.42773 3.00488C5.65881 2.8539 5.96803 2.91841 6.11914 3.14941C6.27027 3.38053 6.20573 3.69067 5.97461 3.8418C3.9543 5.16291 2.625 7.42863 2.625 10C2.625 11.5138 3.08522 12.9202 3.875 14.0908C4.0293 14.3197 3.96909 14.6308 3.74023 14.7852C3.51133 14.9395 3.20031 14.8783 3.0459 14.6494C2.14863 13.3193 1.625 11.7197 1.625 10ZM10.0752 1.625C14.1778 1.6252 17.601 4.52446 18.3652 8.375C18.4188 8.6457 18.2433 8.90904 17.9727 8.96289C17.7018 9.01665 17.4385 8.84019 17.3848 8.56934C16.7129 5.18426 13.6978 2.6252 10.0752 2.625C9.78719 2.625 9.50279 2.64144 9.22363 2.67285C8.94922 2.70374 8.70081 2.50585 8.66992 2.23145C8.6392 1.95715 8.83701 1.70959 9.11133 1.67871C9.42768 1.6431 9.7496 1.625 10.0752 1.625Z" fill="#0A0B33"/>
</svg>
