<svg width="25" height="24" viewBox="0 0 25 24" fill="none" xmlns="http://www.w3.org/2000/svg">
<path d="M17.5 9C17.7069 9 17.9046 9.08287 18.0508 9.22754C18.1967 9.37363 18.2772 9.57074 18.2773 9.77734V10.6348C19.4347 10.8028 20.507 11.341 21.333 12.167C22.159 12.993 22.6972 14.0653 22.8652 15.2227H23.7227C23.9293 15.2228 24.1264 15.3048 24.2725 15.4492C24.4187 15.5954 24.5 15.7931 24.5 16C24.5 16.2069 24.4171 16.4046 24.2725 16.5508C24.1264 16.6967 23.9293 16.7772 23.7227 16.7773H22.8652C22.6972 17.9347 22.159 19.007 21.333 19.833C20.507 20.659 19.4347 21.1972 18.2773 21.3652V22.2227C18.2772 22.4293 18.1952 22.6264 18.0508 22.7725C17.9046 22.9187 17.7069 23 17.5 23C17.2931 23 17.0954 22.9171 16.9492 22.7725C16.8033 22.6264 16.7228 22.4293 16.7227 22.2227V21.3652C15.5653 21.1972 14.493 20.659 13.667 19.833C12.841 19.007 12.3028 17.9347 12.1348 16.7773H11.2773C11.0707 16.7772 10.8736 16.6952 10.7275 16.5508C10.5813 16.4046 10.5 16.2069 10.5 16C10.5 15.7931 10.5829 15.5954 10.7275 15.4492C10.8736 15.3033 11.0707 15.2228 11.2773 15.2227H12.1348C12.3028 14.0653 12.841 12.993 13.667 12.167C14.493 11.341 15.5653 10.8028 16.7227 10.6348V9.77734C16.7228 9.57074 16.8048 9.37363 16.9492 9.22754C17.0954 9.08132 17.2931 9 17.5 9ZM18.2559 12.1855C17.3739 12.0098 16.4573 12.1467 15.6641 12.5713C14.8709 12.9959 14.249 13.6822 13.9053 14.5127C13.5616 15.3432 13.5162 16.2688 13.7773 17.1289C14.0387 17.9906 14.5907 18.735 15.3389 19.2344C16.087 19.7337 16.9849 19.9587 17.8809 19.8701C18.7769 19.7815 19.6138 19.3862 20.25 18.75C20.6109 18.3891 20.8978 17.9596 21.0938 17.4883C21.2881 17.0171 21.3877 16.5116 21.3877 16C21.3877 15.101 21.0747 14.2285 20.5039 13.5332C19.933 12.8379 19.1379 12.3613 18.2559 12.1855ZM8.70703 3C9.16756 3.00002 9.6156 3.1413 9.99121 3.40234L10.1475 3.52148L12.5225 5.5H20.25C21.3866 5.5 22.3264 6.34277 22.4785 7.4375L22.4951 7.5957L22.5 7.75V9.71094C22.0575 9.20935 21.5543 8.76259 21 8.38477V7.75C21 7.3703 20.7176 7.0565 20.3516 7.00684L20.25 7H12.5215L10.1475 8.97852C9.79365 9.27336 9.35903 9.45128 8.90332 9.49121L8.70703 9.5L4 9.49902V16.75C4 17.1297 4.28236 17.4435 4.64844 17.4932L4.75 17.5H8.90039C9.07348 18.0265 9.30016 18.5281 9.57324 19H4.75C3.55921 19 2.58416 18.075 2.50488 16.9043L2.5 16.75V5.25C2.5 4.05921 3.42502 3.08416 4.5957 3.00488L4.75 3H8.70703ZM16.9043 14.5625C17.1889 14.4443 17.502 14.4145 17.8037 14.4736C18.1054 14.5328 18.3819 14.6827 18.5996 14.9004C18.8173 15.1181 18.9657 15.3946 19.0264 15.6963C19.087 15.998 19.0557 16.3111 18.9375 16.5957C18.8193 16.8802 18.6202 17.1228 18.3652 17.2939C18.1086 17.4651 17.808 17.5557 17.5 17.5557C17.0878 17.5557 16.6913 17.3921 16.4004 17.0996C16.1095 16.8072 15.9443 16.4122 15.9443 16C15.9443 15.692 16.0365 15.3914 16.2061 15.1348C16.3772 14.8798 16.6198 14.6791 16.9043 14.5625ZM4.75 4.5C4.3703 4.5 4.0565 4.78236 4.00684 5.14844L4 5.25V7.99902L8.70703 8C8.84736 7.99998 8.98445 7.96093 9.10254 7.8877L9.1875 7.82617L11.0781 6.24902L9.1875 4.67383C9.07971 4.58401 8.9491 4.5262 8.81152 4.50684L8.70703 4.5H4.75Z" fill="#212121"/>
</svg>
