<svg width="24" height="24" viewBox="0 0 24 24" fill="currentColor" xmlns="http://www.w3.org/2000/svg">
<path d="M10.1025 3.78555C10.4514 3.69212 10.8107 3.89865 10.9043 4.24746C10.9978 4.59631 10.7902 4.95558 10.4414 5.04922C6.60336 6.07787 4.32553 10.0226 5.35352 13.8607C6.38202 17.6992 10.3276 19.9788 14.166 18.9506C18.0045 17.922 20.2834 13.9747 19.2549 10.1361C19.1617 9.78736 19.368 9.42882 19.7168 9.33535C20.0655 9.24206 20.4239 9.44963 20.5176 9.79824C20.6556 10.3136 20.741 10.8307 20.7812 11.3441H21.874C22.2352 11.3442 22.5283 11.6372 22.5283 11.9984C22.5281 12.3595 22.2351 12.6517 21.874 12.6518H20.7832C20.5139 16.1482 18.0835 19.2541 14.5039 20.2133C13.9784 20.354 13.4511 20.4398 12.9277 20.4789V21.6195C12.9274 21.9805 12.6354 22.2727 12.2744 22.2729C11.9133 22.2729 11.6204 21.9805 11.6201 21.6195V20.476C8.13647 20.1948 5.04618 17.7687 4.08984 14.1996C3.95311 13.6892 3.86886 13.1769 3.82812 12.6684H2.66992C2.30865 12.6684 2.01563 12.3753 2.01562 12.0141C2.01584 11.653 2.30878 11.3607 2.66992 11.3607H3.82422C4.0878 7.85886 6.51826 4.74615 10.1025 3.78555Z" />
<path d="M10.9512 6.9457C11.3001 6.85224 11.6594 7.05868 11.7529 7.40762C11.8463 7.75653 11.638 8.11491 11.2891 8.2084C9.19597 8.7697 7.95408 10.9217 8.51465 13.015C9.07563 15.1087 11.2277 16.3521 13.3213 15.7914C15.4149 15.2304 16.6584 13.0774 16.0977 10.9838C16.0045 10.635 16.2109 10.2766 16.5596 10.183C16.9083 10.0897 17.2667 10.2963 17.3604 10.6449C18.1084 13.4365 16.4517 16.3069 13.6602 17.0551C10.8686 17.8028 7.99902 16.1454 7.25098 13.3539C6.50328 10.5625 8.1599 7.69388 10.9512 6.9457Z" />
<path d="M12.3008 10.6898C13.0232 10.69 13.6084 11.276 13.6084 11.9984C13.6084 12.7209 13.0232 13.3069 12.3008 13.307C11.5782 13.307 10.9922 12.721 10.9922 11.9984C10.9922 11.2759 11.5783 10.6898 12.3008 10.6898Z" />
<path d="M15.9711 2.11914C16.1312 2.11914 16.2882 2.16729 16.42 2.25811C16.5543 2.3527 16.6554 2.48848 16.7079 2.64414L17.0057 3.56068C17.0761 3.76584 17.1927 3.95262 17.3454 4.10664C17.498 4.26052 17.6837 4.37756 17.8881 4.44966L18.7991 4.74524C18.9513 4.79904 19.0835 4.89878 19.1763 5.03091C19.269 5.16312 19.3187 5.3216 19.3175 5.48311C19.3162 5.64443 19.2642 5.80132 19.1697 5.93201C19.0751 6.06267 18.942 6.16056 18.7892 6.21215L17.8914 6.50443C17.6794 6.57547 17.4866 6.69461 17.3289 6.85296C17.2863 6.89511 17.2465 6.94025 17.2097 6.98752C17.1102 7.1159 17.0333 7.26115 16.9825 7.41546L16.6869 8.32318C16.634 8.47517 16.5347 8.60725 16.4035 8.70039C16.2723 8.79341 16.1154 8.84283 15.9546 8.84267C15.7932 8.84334 15.635 8.79398 15.5035 8.70039C15.3718 8.60315 15.2718 8.46856 15.2167 8.31436L14.9256 7.41657C14.8547 7.20511 14.7356 7.01304 14.5781 6.85517C14.4212 6.69794 14.2297 6.57888 14.0189 6.50885L13.1057 6.21215C12.9551 6.15842 12.8251 6.05935 12.7329 5.9287C12.6404 5.79803 12.5906 5.64209 12.5906 5.48201C12.5907 5.32197 12.6405 5.16595 12.7329 5.03532C12.8325 4.89642 12.9738 4.79288 13.1366 4.74083L14.0355 4.44966C14.2469 4.37979 14.4392 4.26176 14.5969 4.10443C14.7545 3.94704 14.8729 3.75446 14.9432 3.54304L15.241 2.63201C15.2942 2.48131 15.3928 2.35026 15.5233 2.25811C15.655 2.16744 15.8112 2.11923 15.9711 2.11914Z" />
</svg>
