<svg width="24" height="24" viewBox="0 0 24 24" fill="none" xmlns="http://www.w3.org/2000/svg">
<path d="M21.6924 15.8096C22.0535 15.9057 22.2671 16.2728 22.1699 16.6299C21.4452 19.2914 18.9888 21.2509 16.0674 21.251C15.0097 21.251 14.0104 20.9937 13.1328 20.5381C12.8019 20.3661 12.6748 19.9611 12.8486 19.6338C13.0226 19.3066 13.4317 19.1807 13.7627 19.3525C14.4507 19.7097 15.2342 19.9121 16.0674 19.9121C18.3609 19.912 20.2927 18.3736 20.8623 16.2822C20.9595 15.9252 21.3313 15.7135 21.6924 15.8096ZM8.20703 3C8.66756 3.00002 9.1156 3.1413 9.49121 3.40234L9.64746 3.52148L12.0225 5.5H19.75C20.8866 5.5 21.8264 6.34277 21.9785 7.4375L21.9951 7.5957L22 7.75V9.71094C21.5575 9.20935 21.0543 8.76259 20.5 8.38477V7.75C20.5 7.3703 20.2176 7.0565 19.8516 7.00684L19.75 7H12.0215L9.64746 8.97852C9.29365 9.27336 8.85903 9.45128 8.40332 9.49121L8.20703 9.5L3.5 9.49902V16.75C3.5 17.1297 3.78236 17.4435 4.14844 17.4932L4.25 17.5H8.40039C8.57348 18.0265 8.80016 18.5281 9.07324 19H4.25C3.05921 19 2.08416 18.075 2.00488 16.9043L2 16.75V5.25C2 4.05921 2.92502 3.08416 4.0957 3.00488L4.25 3H8.20703ZM12.5273 9.82324C12.837 9.6159 13.2581 9.69579 13.4678 10.002C13.6774 10.3081 13.5965 10.7242 13.2871 10.9316C11.9671 11.8156 11.1017 13.3086 11.1016 15.001C11.1016 16.0208 11.4151 16.9667 11.9521 17.751C12.1617 18.0571 12.0809 18.4732 11.7715 18.6807C11.4619 18.888 11.0408 18.808 10.8311 18.502C10.147 17.503 9.74707 16.2969 9.74707 15.001C9.74721 12.8457 10.8513 10.9457 12.5273 9.82324ZM16.0674 11.4297C18.0617 11.4298 19.6785 13.0288 19.6787 15.001C19.6787 16.9734 18.0619 18.5732 16.0674 18.5732C14.0728 18.5732 12.4561 16.9734 12.4561 15.001C12.4563 13.0287 14.073 11.4297 16.0674 11.4297ZM16.0674 12.7695C14.8209 12.7695 13.8108 13.7684 13.8105 15.001C13.8105 16.2338 14.8208 17.2334 16.0674 17.2334C17.3139 17.2333 18.3242 16.2337 18.3242 15.001C18.324 13.7684 17.3138 12.7696 16.0674 12.7695ZM16.0674 8.75098C19.0752 8.75104 21.5911 10.8289 22.2305 13.6113C22.3132 13.9719 22.0843 14.3302 21.7197 14.4121C21.3551 14.494 20.9921 14.2687 20.9092 13.9082C20.4068 11.7222 18.4292 10.0909 16.0674 10.0908C15.8928 10.0908 15.7204 10.0999 15.5508 10.1172C15.1788 10.1551 14.846 9.88739 14.8076 9.51953C14.7692 9.15165 15.0401 8.82214 15.4121 8.78418C15.6277 8.7622 15.8464 8.75098 16.0674 8.75098ZM4.25 4.5C3.8703 4.5 3.5565 4.78236 3.50684 5.14844L3.5 5.25V7.99902L8.20703 8C8.34736 7.99998 8.48445 7.96093 8.60254 7.8877L8.6875 7.82617L10.5781 6.24902L8.6875 4.67383C8.57971 4.58401 8.4491 4.5262 8.31152 4.50684L8.20703 4.5H4.25Z" fill="#212121"/>
</svg>
