<svg width="20" height="20" viewBox="0 0 20 20" fill="none" xmlns="http://www.w3.org/2000/svg">
<path d="M7.39804 12.8086C7.57428 12.9329 7.78476 12.9994 8.00043 12.9991C8.21633 12.9992 8.42686 12.9317 8.60243 12.8061C8.77993 12.6756 8.91464 12.4953 8.98943 12.2881L9.43643 10.9151C9.55086 10.5708 9.74391 10.2579 10.0003 10.0011C10.2566 9.74442 10.5693 9.55095 10.9134 9.43606L12.3044 8.98506C12.4564 8.9307 12.5936 8.8419 12.7055 8.72561C12.8174 8.60933 12.9008 8.46871 12.9492 8.31479C12.9977 8.16087 13.0098 7.99782 12.9847 7.83842C12.9596 7.67903 12.8979 7.52762 12.8044 7.39606C12.6703 7.21013 12.4794 7.07289 12.2604 7.00506L10.8854 6.55806C10.5409 6.44383 10.2278 6.25086 9.97087 5.99447C9.71396 5.73809 9.52035 5.42534 9.40543 5.08106L8.95343 3.69306C8.88113 3.49075 8.74761 3.31599 8.57143 3.19306C8.43877 3.09933 8.28607 3.03785 8.12548 3.0135C7.96489 2.98916 7.80083 3.00262 7.64636 3.05282C7.49188 3.10301 7.35125 3.18856 7.23564 3.30266C7.12004 3.41676 7.03265 3.55625 6.98043 3.71006L6.52343 5.11006C6.40884 5.44488 6.21967 5.74929 5.97022 6.00031C5.72076 6.25133 5.41753 6.44238 5.08343 6.55906L3.69243 7.00706C3.54065 7.06145 3.40352 7.15023 3.29177 7.26645C3.18001 7.38266 3.09666 7.52316 3.04824 7.67694C2.99982 7.83073 2.98764 7.99363 3.01265 8.15291C3.03767 8.31219 3.0992 8.46352 3.19243 8.59506C3.32027 8.77451 3.50105 8.90948 3.70943 8.98106L5.08343 9.42606C5.52354 9.57254 5.90999 9.84689 6.19343 10.2141C6.35585 10.4247 6.4813 10.6614 6.56443 10.9141L7.01643 12.3051C7.08846 12.5083 7.22179 12.6843 7.39804 12.8086ZM7.48343 5.39406L8.01043 4.01706L8.44943 5.39406C8.61312 5.8872 8.88991 6.33522 9.25767 6.70229C9.62544 7.06936 10.074 7.3453 10.5674 7.50806L11.9734 8.03706L10.5914 8.48506C10.0987 8.64935 9.65095 8.92622 9.28382 9.29369C8.9167 9.66116 8.64026 10.1091 8.47643 10.6021L7.95343 11.9801L7.50443 10.6011C7.34335 10.1078 7.06943 9.65889 6.70443 9.29006C6.3356 8.92202 5.88653 8.64443 5.39243 8.47906L4.01443 7.95706L5.40043 7.50706C5.88672 7.33843 6.32775 7.06026 6.68943 6.69406C7.04901 6.32635 7.32049 5.88187 7.48343 5.39406ZM13.5353 16.8511C13.6713 16.9473 13.8337 16.999 14.0003 16.9991C14.1654 16.9991 14.3264 16.9481 14.4613 16.8531C14.6008 16.7546 14.7058 16.6146 14.7613 16.4531L15.0093 15.6911C15.0625 15.5326 15.1515 15.3886 15.2693 15.2701C15.3867 15.1516 15.5307 15.0628 15.6893 15.0111L16.4613 14.7591C16.619 14.7046 16.7557 14.6021 16.8523 14.4661C16.9257 14.3631 16.9736 14.2441 16.9921 14.119C17.0106 13.9939 16.9992 13.8662 16.9588 13.7464C16.9184 13.6266 16.8501 13.518 16.7597 13.4297C16.6692 13.3413 16.5591 13.2756 16.4383 13.2381L15.6743 12.9891C15.5162 12.9365 15.3724 12.8479 15.2544 12.7302C15.1364 12.6126 15.0473 12.4691 14.9943 12.3111L14.7423 11.5381C14.6886 11.3802 14.586 11.2436 14.4493 11.1481C14.3473 11.0751 14.2295 11.0272 14.1056 11.0081C13.9816 10.9891 13.8549 10.9994 13.7357 11.0384C13.6164 11.0773 13.508 11.1437 13.4192 11.2323C13.3304 11.3208 13.2636 11.429 13.2243 11.5481L12.9773 12.3101C12.925 12.4677 12.8375 12.6114 12.7213 12.7301C12.6066 12.8466 12.4667 12.9352 12.3123 12.9891L11.5393 13.2411C11.3803 13.295 11.2422 13.3976 11.1447 13.5343C11.0472 13.6711 10.9952 13.835 10.9961 14.003C10.997 14.1709 11.0507 14.3343 11.1496 14.47C11.2486 14.6057 11.3877 14.7069 11.5473 14.7591L12.3103 15.0061C12.4692 15.0595 12.6136 15.1488 12.7323 15.2671C12.8505 15.3853 12.939 15.53 12.9903 15.6891L13.2433 16.4631C13.2981 16.6196 13.4001 16.7551 13.5353 16.8511ZM12.6223 14.0581L12.4433 13.9991L12.6273 13.9351C12.9291 13.8301 13.2027 13.6574 13.4273 13.4301C13.6537 13.2011 13.8248 12.9233 13.9273 12.6181L13.9853 12.4401L14.0443 12.6211C14.1463 12.9278 14.3185 13.2065 14.5471 13.4349C14.7757 13.6634 15.0545 13.8353 15.3613 13.9371L15.5563 14.0001L15.3763 14.0591C15.0689 14.1613 14.7898 14.334 14.5611 14.5633C14.3324 14.7927 14.1606 15.0724 14.0593 15.3801L14.0003 15.5611L13.9423 15.3801C13.8409 15.0719 13.6687 14.7918 13.4394 14.5622C13.2102 14.3326 12.9303 14.16 12.6223 14.0581Z" fill="#6700D7"/>
</svg>
