<svg width="20" height="20" viewBox="0 0 20 20" fill="none" xmlns="http://www.w3.org/2000/svg">
<path d="M8.29883 4.375C5.6688 4.39407 3.54297 6.53246 3.54297 9.16699C3.54314 11.8131 5.68788 13.9578 8.33398 13.958C10.8304 13.958 12.8811 12.0492 13.1055 9.61133H14.3584C14.266 10.8813 13.7822 12.0423 13.0254 12.9736L17.1094 17.0576C17.3535 17.3017 17.3535 17.6983 17.1094 17.9424C16.8876 18.1639 16.5404 18.1842 16.2959 18.0029L16.2256 17.9424L12.1416 13.8584C11.1026 14.7026 9.7771 15.208 8.33398 15.208C4.99752 15.2078 2.29314 12.5035 2.29297 9.16699C2.29297 5.84211 4.97843 3.14409 8.29883 3.125V4.375Z" fill="#212121"/>
<path d="M12.6357 1.43625C12.5609 1.26165 12.3892 1.14844 12.1992 1.14844C12.0093 1.14844 11.8376 1.26165 11.7628 1.43625L8.91352 8.0845C8.81021 8.32556 8.92187 8.60473 9.16293 8.70804C9.404 8.81135 9.68316 8.69969 9.78648 8.45862L10.4772 6.84694H13.9213L14.612 8.45862C14.7153 8.69969 14.9945 8.81135 15.2356 8.70804C15.4766 8.60473 15.5883 8.32556 15.485 8.0845L12.6357 1.43625ZM13.5143 5.89719H10.8842L12.1992 2.82883L13.5143 5.89719Z" fill="#212121"/>
<path d="M12.1989 0.941406C12.4722 0.941406 12.7192 1.10427 12.8268 1.35547L15.6764 8.00293C15.8251 8.34975 15.6639 8.75176 15.317 8.90039C14.9704 9.04885 14.5693 8.88847 14.4206 8.54199L13.7838 7.05664H10.6139L9.97721 8.54199C9.82844 8.88847 9.42737 9.04888 9.08072 8.90039C8.7339 8.75176 8.57271 8.34975 8.72135 8.00293L11.571 1.35547C11.6786 1.10427 11.9256 0.941417 12.1989 0.941406ZM12.1989 1.35742C12.0923 1.35743 11.9958 1.42154 11.9538 1.51953L9.10514 8.16797C9.04729 8.30323 9.10954 8.45962 9.24478 8.51758C9.37992 8.57542 9.53627 8.5129 9.59439 8.37793L10.2858 6.76562L10.3395 6.63965H14.0583L14.112 6.76562L14.8034 8.37793C14.8615 8.5129 15.0179 8.57539 15.153 8.51758C15.2881 8.45967 15.3512 8.30315 15.2936 8.16797L12.444 1.51953C12.402 1.42153 12.3055 1.35742 12.1989 1.35742ZM13.8297 6.10645H10.568L12.1989 2.30078L13.8297 6.10645ZM11.2008 5.68945H13.1979L12.1989 3.3584L11.2008 5.68945Z" fill="#212121"/>
</svg>
