<svg width="106" height="105" viewBox="0 0 106 105" fill="none" xmlns="http://www.w3.org/2000/svg">
<path d="M45.8379 75.7501C62.5931 75.7501 76.1758 62.1507 76.1758 45.375C76.1758 28.5994 62.5931 15 45.8379 15C29.0828 15 15.5 28.5994 15.5 45.375C15.5 62.1507 29.0828 75.7501 45.8379 75.7501Z" fill="#FAFAFC" stroke="url(#paint0_linear_9859_62038)"/>
<path d="M45.838 74.9063C62.1277 74.9063 75.3332 61.6847 75.3332 45.375C75.3332 29.0654 62.1277 15.8438 45.838 15.8438C29.5482 15.8438 16.3428 29.0654 16.3428 45.375C16.3428 61.6847 29.5482 74.9063 45.838 74.9063Z" fill="white"/>
<path d="M72.8774 71.7803L72.3718 72.2865L68.0015 67.9125L68.5071 67.4062L72.8774 71.7803Z" fill="#FAFAFC" stroke="#4FBEEA"/>
<path d="M89.0155 81.3063C89.9663 82.2637 90.5 83.559 90.5 84.9091C90.5 86.2593 89.9663 87.5545 89.0155 88.512C88.0592 89.4644 86.7652 89.9991 85.4163 89.9991C84.0674 89.9991 82.7733 89.4644 81.817 88.512L69.0582 75.8321L72.7038 72.182L76.3494 68.623L89.0155 81.3063Z" fill="#DCE1EF"/>
<defs>
<linearGradient id="paint0_linear_9859_62038" x1="18.699" y1="-11.0618" x2="117.516" y2="49.2736" gradientUnits="userSpaceOnUse">
<stop stop-color="#5600D7"/>
<stop offset="1" stop-color="#00EFEA" stop-opacity="0.66"/>
</linearGradient>
</defs>
</svg>
