<svg width="24" height="24" viewBox="0 0 24 24" fill="none" xmlns="http://www.w3.org/2000/svg">
<path d="M12 3.59999C7.3608 3.59999 3.59999 7.3608 3.59999 12C3.59999 12.3314 3.33136 12.6 2.99999 12.6C2.66862 12.6 2.39999 12.3314 2.39999 12C2.39999 6.69806 6.69806 2.39999 12 2.39999C17.3019 2.39999 21.6 6.69806 21.6 12C21.6 17.3019 17.3019 21.6 12 21.6C11.6686 21.6 11.4 21.3314 11.4 21C11.4 20.6686 11.6686 20.4 12 20.4C16.6392 20.4 20.4 16.6392 20.4 12C20.4 7.3608 16.6392 3.59999 12 3.59999Z" fill="white"/>
</svg>
